<svg width="1024" height="1024" viewBox="0 0 1024 1024" fill="none" xmlns="http://www.w3.org/2000/svg">
<g clip-path="url(#clip0_1504_596)">
<g clip-path="url(#clip1_1504_596)">
<path d="M200.889 352.556C200.889 315.75 230.75 285.889 267.556 285.889C304.361 285.889 334.222 315.75 334.222 352.556V508.111H200.889V352.556ZM112 352.556V663.667C112 749.639 181.583 819.222 267.556 819.222C353.528 819.222 423.111 749.639 423.111 663.667V415.889C425.611 442.417 434.5 468.667 450.611 492L629.083 752.139C678.389 823.944 775.333 841.444 845.75 791.167C916.167 740.889 933.25 641.861 883.944 570.056L705.472 309.917C656.167 237.972 559.083 220.611 488.806 270.889C449.917 298.667 427.278 341.444 423.111 386.167V352.556C423.111 266.583 353.528 197 267.556 197C181.583 197 112 266.583 112 352.556ZM523.944 441.722C501.722 409.361 510.056 364.917 540.472 343.111C569.917 322.139 610.611 328.806 632.139 360.056L725.194 495.611L614.222 573.389L523.944 441.722ZM793.944 718.806C792.833 719.639 791.722 720.333 790.611 721.028L796.167 717.139C795.472 717.694 794.778 718.25 793.944 718.806Z" fill="#14B8A6"/>
</g>
</g>
<defs>
<clipPath id="clip0_1504_596">
<rect width="1024" height="1024" fill="white"/>
</clipPath>
<clipPath id="clip1_1504_596">
<rect width="800" height="711.111" fill="white" transform="translate(112 152)"/>
</clipPath>
</defs>
</svg>
