<svg width="800" height="640" viewBox="0 0 800 640" fill="none" xmlns="http://www.w3.org/2000/svg">
<path d="M120 80C120 57.875 137.875 40 160 40H200C222.125 40 240 57.875 240 80V280V360V560C240 582.125 222.125 600 200 600H160C137.875 600 120 582.125 120 560V480H80C57.875 480 40 462.125 40 440V360C17.875 360 0 342.125 0 320C0 297.875 17.875 280 40 280V200C40 177.875 57.875 160 80 160H120V80ZM680 80V160H720C742.125 160 760 177.875 760 200V280C782.125 280 800 297.875 800 320C800 342.125 782.125 360 760 360V440C760 462.125 742.125 480 720 480H680V560C680 582.125 662.125 600 640 600H600C577.875 600 560 582.125 560 560V360V280V80C560 57.875 577.875 40 600 40H640C662.125 40 680 57.875 680 80ZM520 280V360H280V280H520Z" fill="#F97316"/>
</svg>
